Sporniket-Nostalgie2-Sans-Regular.sfdir
StartChar: slash
Encoding: 47 47 48
Width: 512
VWidth: 0
InSpiro: 1
Flags: HW
HStem: 0 21G<62.9536 164> 736 20G<348 448.954>
VStem: 64 100<0 119.574> 348 100<633.006 756>
LayerCount: 2
Fore
SplineSet
164 0 m 1
 162.108398438 27.30859375 165.2109375 54.9052734375 172.606445312 81.26171875 c 0
 180.000976562 107.6171875 191.811523438 132.489257812 204 157 c 2
 387 525 l 2
 404.954101562 561.10546875 422.372070312 597.711914062 433.565429688 636.450195312 c 0
 444.7578125 675.188476562 449.907226562 715.721679688 448 756 c 1
 348 756 l 1
 349.254882812 725.130859375 345.197265625 694.103515625 336.592773438 664.431640625 c 0
 327.987304688 634.758789062 314.696289062 606.692382812 301 579 c 2
 118 209 l 2
 101.841796875 176.331054688 86.1767578125 143.200195312 76.234375 108.135742188 c 0
 66.2919921875 73.072265625 61.9072265625 36.38671875 64 0 c 1
 164 0 l 1
  Spiro
    204 157 [
    387 525 ]
    448 756 v
    348 756 v
    301 579 [
    118 209 ]
    64 0 v
    164 0 v
    0 0 z
  EndSpiro
EndSplineSet
EndChar
StartChar: B
Encoding: 66 66 28
Width: 512
VWidth: 0
InSpiro: 1
Flags: W
HStem: 5.68434e-14 100<212 302.275> 656 100<281.747 323.537>
VStem: 350 100<147.994 318.25> 352 90<511.814 627.561>
LayerCount: 2
Fore
SplineSet
64 756 m 1xc0
 64 0 l 1
 164 0 l 1
 164 756 l 1
 64 756 l 1xc0
  Spiro
    64 756 v
    64 0 v
    164 0 v
    164 756 v
    0 0 z
  EndSpiro
64 656 m 1
 244 656 l 2
 256.633397429 656 269.348896117 655.842328478 281.746977071 653.415330485 c 0
 294.145058025 650.988332491 306.164127018 646.297204377 316.537688695 639.086660103 c 0
 326.911250373 631.87611583 335.566075081 622.220154108 341.635219919 611.14007236 c 0
 347.704364756 600.059990611 351.218263355 587.609187857 352 575 c 0
 352.834927318 561.532861841 350.552259176 547.858617726 345.205449518 535.470214265 c 0
 339.85863986 523.081810804 331.401040567 512.041880831 320.780810439 503.718923073 c 0
 310.160580311 495.395965314 297.469028984 489.890927729 284.280384508 487.041266221 c 0
 271.091740032 484.191604713 257.492994991 484 244 484 c 2
 127 484 l 1
 127 384 l 1
 224 384 l 2
 251.20309874 384.000000001 278.676724981 384.557754737 305.068924258 391.150204843 c 0
 331.461123535 397.742654949 356.443433667 410.25863806 376.965207276 428.115440377 c 0
 397.486980887 445.972242695 413.449875405 468.830406454 424.229068209 493.806746931 c 0
 435.008261014 518.783087408 440.84301722 545.821516378 442 573 c 0xd0
 443.082345918 598.425201888 440.036868671 624.132268778 431.885146678 648.239566269 c 0
 423.733424686 672.346863759 410.236641856 694.777121614 391.865542085 712.387205571 c 0
 373.494442314 729.997289527 350.379002479 742.419827055 325.780304105 748.940287319 c 0
 301.181605731 755.460747583 275.448229089 756 250 756 c 2
 64 756 l 1
 64 656 l 1
  Spiro
    244 656 ]
    352 575 o
    244 484 [
    127 484 v
    127 384 v
    224 384 ]
    442 573 o
    250 756 [
    64 756 v
    64 656 v
    0 0 z
  EndSpiro
127 384 m 1
 191 384 l 2
 211.07029976 383.999999999 231.363254881 383.535145377 250.757729417 378.370719955 c 0
 270.152203953 373.206294532 288.351764497 363.45479446 303.093036371 349.834521481 c 0
 317.834308246 336.214248501 329.069355153 319.016174596 336.723109816 300.462550365 c 0
 344.376864479 281.908926135 348.662113157 262.025658324 350 242 c 0
 351.275803019 222.903620173 349.850502503 203.535500564 344.712114636 185.099222036 c 0
 339.57372677 166.662943508 330.496325209 149.187567344 317.4073543 135.224106586 c 0
 304.318383389 121.260645828 287.28886426 111.147055755 268.909268352 105.80946734 c 0
 250.529672444 100.471878925 231.138949706 100 212 100 c 2
 64 100 l 1
 64 5.68434188608e-14 l 1
 236 5.68434188608e-14 l 2
 267.484445908 2.61024424201e-09 299.469256998 0.923583673537 329.422763056 10.6219242004 c 0
 359.376269114 20.3202647273 386.556607889 38.5672970654 406.473841337 62.9511881808 c 0
 426.39107479 87.335079298 439.009473306 117.169428269 445.464573187 147.985041519 c 0
 451.919673067 178.800654769 452.671447272 210.629094627 450 242 c 0xe0
 447.189064096 275.008925649 440.630731873 307.800349143 429.139248199 338.871820561 c 0
 417.647764525 369.94329198 400.783673284 399.305137341 377.683596525 423.05123148 c 0
 354.583519762 446.797325617 325.246298588 464.345497843 293.470474882 473.714999484 c 0
 261.694651176 483.084501126 228.128394667 484 195 484 c 2
 127 484 l 1
 127 384 l 1
  Spiro
    191 384 ]
    350 242 o
    212 100 [
    64 100 v
    64 5.68434e-14 v
    236 5.68434e-14 ]
    450 242 o
    195 484 [
    127 484 v
    127 384 v
    0 0 z
  EndSpiro
EndSplineSet
EndChar
StartChar: C
Encoding: 67 67 35
Width: 512
VWidth: 0
InSpiro: 1
Flags: W
HStem: -8 100<195.875 316.125> 676 100<195.959 316.162>
VStem: 64 100<123.913 644.041> 348 100<123.913 226 542 644.162>
LayerCount: 2
Fore
SplineSet
448 226 m 1
 448 184 l 2
 448 133.734517543 427.307565493 83.7785615174 391.764501988 48.2354980122 c 0
 356.221438483 12.6924345069 306.265482457 -8 256 -8 c 0
 205.734517543 -8 155.778561517 12.6924345069 120.235498012 48.2354980122 c 0
 84.6924345069 83.7785615174 64 133.734517543 64 184 c 2
 64 584 l 2
 64 634.265482457 84.6924345069 684.221438483 120.235498012 719.764501988 c 0
 155.778561517 755.307565493 205.734517543 776 256 776 c 0
 306.265482457 776 356.221438483 755.307565493 391.764501988 719.764501988 c 0
 427.307565493 684.221438483 448 634.265482457 448 584 c 2
 448 542 l 1
 348 542 l 1
 348 576 l 2
 350.164216987 601.371990633 341.235739038 627.495638494 323.995085817 646.235478952 c 0
 306.754432596 664.975319409 281.464084973 676.04604717 256 676 c 0
 231.926378586 675.956467231 208.017533893 666.02776367 190.994885111 649.005114889 c 0
 173.97223633 631.982466107 164.043532769 608.073621414 164 584 c 2
 164 184 l 2
 164 159.914456322 173.915124868 135.977227394 190.946176131 118.946176131 c 0
 207.977227394 101.915124868 231.914456322 92 256 92 c 0
 280.085543678 92 304.022772606 101.915124868 321.053823869 118.946176131 c 0
 338.084875132 135.977227394 348 159.914456322 348 184 c 2
 348 226 l 1
 448 226 l 1
  Spiro
    448 226 v
    448 184 v
    256 -8 o
    64 184 v
    64 584 v
    256 776 o
    448 584 v
    448 542 v
    348 542 v
    348 576 v
    256 676 o
    164 584 v
    164 184 v
    256 92 o
    348 184 v
    348 226 v
    0 0 z
  EndSpiro
EndSplineSet
EndChar
StartChar: F
Encoding: 70 70 30
Width: 512
VWidth: 0
Flags: W
LayerCount: 2
Fore
SplineSet
64 656 m 1
 448 656 l 1
 448 756 l 1
 64 756 l 1
 64 656 l 1
  Spiro
    64 656 v
    448 656 v
    448 756 v
    64 756 v
    0 0 z
  EndSpiro
64 384 m 1
 370 384 l 1
 370 484 l 1
 64 484 l 1
 64 384 l 1
  Spiro
    64 384 v
    370 384 v
    370 484 v
    64 484 v
    0 0 z
  EndSpiro
64 756 m 5
 64 0 l 5
 164 0 l 5
 164 756 l 5
 64 756 l 5
  Spiro
    64 756 v
    64 0 v
    164 0 v
    164 756 v
    0 0 z
  EndSpiro
EndSplineSet
EndChar
StartChar: H
Encoding: 72 72 38
Width: 512
VWidth: 0
Flags: W
LayerCount: 2
Fore
SplineSet
64 756 m 1
 64 0 l 1
 164 0 l 1
 164 756 l 1
 64 756 l 1
  Spiro
    64 756 v
    64 0 v
    164 0 v
    164 756 v
    0 0 z
  EndSpiro
96 384 m 5
 402 384 l 5
 402 484 l 5
 96 484 l 5
 96 384 l 5
  Spiro
    96 384 v
    402 384 v
    402 484 v
    96 484 v
    0 0 z
  EndSpiro
348 756 m 1
 348 0 l 1
 448 0 l 1
 448 756 l 1
 348 756 l 1
  Spiro
    348 756 v
    348 0 v
    448 0 v
    448 756 v
    0 0 z
  EndSpiro
EndSplineSet
EndChar
StartChar: I
Encoding: 73 73 31
Width: 256
VWidth: 0
Flags: W
VStem: 78 100
LayerCount: 2
Fore
SplineSet
78 756 m 5
 78 0 l 5
 178 0 l 5
 178 756 l 5
 78 756 l 5
  Spiro
    78 756 v
    78 0 v
    178 0 v
    178 756 v
    0 0 z
  EndSpiro
EndSplineSet
EndChar
StartChar: K
Encoding: 75 75 44
Width: 512
VWidth: 0
InSpiro: 1
Flags: HMW
LayerCount: 2
Fore
SplineSet
340 756 m 1
 340.000956652 741.811485162 337.89738697 727.642739059 334 714 c 0
 327.183529165 690.139055827 315.267578848 668.109966042 304 646 c 2
 251 542 l 2
 247.330591934 534.799652097 243.495101739 527.608573114 238.318107511 521.403067797 c 0
 233.141113282 515.19756248 226.691424082 510.047280172 219.439235378 506.481424807 c 0
 212.187046673 502.915569443 204.233522906 500.924500121 196.209834934 499.9601367 c 0
 188.186146962 498.995773279 180.081433381 499 172 499 c 2
 128 499 l 1
 128 397 l 1
 193 397 l 2
 220.183568018 397 248.286514065 396.592779546 273.328492303 407.168492104 c 0
 285.849481422 412.456348381 297.190843686 420.519979877 306.233372689 430.667356964 c 0
 315.275901691 440.814734052 321.821585329 452.893646929 328 465 c 2
 402 610 l 2
 415.571174667 636.592166577 428.117872753 663.949071794 435 693 c 0
 439.882904913 713.611783968 442.260160436 734.819331567 442 756 c 1
 340 756 l 1
  Spiro
    340 756 v
    334 714 o
    304 646 [
    251 542 ]
    172 499 [
    128 499 v
    128 397 v
    193 397 ]
    328 465 [
    402 610 ]
    435 693 o
    442 756 v
    0 0 z
  EndSpiro
512 0 m 1
 512.326910931 21.182322963 509.935443348 42.3980807734 505 63 c 0
 498.045829839 92.028648863 485.461389515 119.357666585 472 146 c 2
 328 431 l 2
 321.8667018 443.138819354 315.359274383 455.251425832 306.32506994 465.417616476 c 0
 297.290865497 475.58380712 285.933283147 483.647116725 273.396040276 488.918342705 c 0
 248.321554534 499.460794661 220.200608972 499.000000002 193 499 c 2
 128 499 l 1
 128 397 l 1
 172 397 l 2
 180.086725268 397 188.1962907 397.007184921 196.226700656 396.054482708 c 0
 204.257110612 395.101780496 212.220837576 393.129221658 219.483994856 389.573708772 c 0
 226.747152137 386.018195887 233.207105612 380.867925954 238.37825181 374.650661881 c 0
 243.549398008 368.433397808 247.35985012 361.221110331 251 354 c 2
 374 110 l 2
 385.169068443 87.8434739822 397.12737993 65.8417035559 404 42 c 0
 407.9304656 28.3648805366 410.04115405 14.1902554226 410 0 c 1
 512 0 l 1
  Spiro
    512 0 v
    505 63 o
    472 146 [
    328 431 ]
    193 499 [
    128 499 v
    128 397 v
    172 397 ]
    251 354 [
    374 110 ]
    404 42 o
    410 0 v
    0 0 z
  EndSpiro
64 756 m 1
 64 0 l 1
 164 0 l 1
 164 756 l 1
 64 756 l 1
  Spiro
    64 756 v
    64 0 v
    164 0 v
    164 756 v
    0 0 z
  EndSpiro
EndSplineSet
EndChar
StartChar: M
Encoding: 77 77 51
Width: 576
VWidth: 0
InSpiro: 1
Flags: HMW
LayerCount: 2
Fore
SplineSet
512 0 m 5
 412 0 l 5
 412 756 l 5
 512 756 l 5
 512 0 l 5
  Spiro
    512 0 v
    412 0 v
    412 756 v
    512 756 v
    0 0 z
  EndSpiro
64 0 m 1
 64 756 l 1
 164 756 l 1
 164 0 l 1
 64 0 l 1
  Spiro
    64 0 v
    64 756 v
    164 756 v
    164 0 v
    0 0 z
  EndSpiro
512 756 m 1
 387 513 l 2
 373.73828125 487.219726562 360.829101562 461.115234375 351.98828125 433.504882812 c 0
 343.147460938 405.89453125 338.249023438 376.990234375 338 348 c 1
 238 348 l 1
 247.163085938 445.834960938 288.734375 537.408203125 337 623 c 2
 412 756 l 1
 512 756 l 1
  Spiro
    387 513 ]
    338 348 v
    238 348 v
    337 623 [
    412 756 v
    512 756 v
    0 0 z
  EndSpiro
64 756 m 1
 164 756 l 1
 239 623 l 2
 287.26605989 537.408187128 328.836686083 445.834577968 338 348 c 1
 238 348 l 1
 237.75054287 376.990310133 232.852241429 405.89404721 224.011336305 433.504529043 c 0
 215.170431181 461.115010876 202.261548697 487.219549332 189 513 c 2
 64 756 l 1
  Spiro
    64 756 v
    164 756 v
    239 623 ]
    338 348 v
    238 348 v
    189 513 [
    0 0 z
  EndSpiro
EndSplineSet
EndChar
StartChar: P
Encoding: 80 80 43
Width: 512
VWidth: 0
InSpiro: 1
Flags: HMW
LayerCount: 2
Fore
SplineSet
64 0 m 1
 64 756 l 1
 164 756 l 1
 164 0 l 1
 64 0 l 1
  Spiro
    64 0 v
    64 756 v
    164 756 v
    164 0 v
    0 0 z
  EndSpiro
240 368 m 2
 257.815707043 368 276.047799182 368.774835036 292.534598763 375.526490908 c 0
 309.021398344 382.278146781 323.030272755 394.672063534 332.171267017 409.963945084 c 0
 341.312261272 425.255826642 345.784612548 442.938233928 347.899241371 460.62799827 c 0
 350.013870195 478.317762612 350.124307133 496.184726629 350 514 c 0
 349.878228369 531.451895222 349.517207421 548.953661168 347.140904027 566.243445937 c 0
 344.764600633 583.533230706 340.035919092 600.761683147 330.814135846 615.578639276 c 0
 321.592352608 630.395595403 307.708274449 642.313669096 291.502412259 648.790821683 c 0
 275.296550069 655.267974269 257.452320045 655.999999993 240 656 c 2
 64 656 l 1
 64 756 l 1
 243 756 l 2
 273.74406309 756 305.061764767 754.904580113 334.007804775 744.544841547 c 0
 362.953844784 734.185102982 388.586574939 714.944501746 406.801924493 690.177619506 c 0
 425.01727404 665.410737259 435.948703178 635.872165816 442.056699441 605.740956132 c 0
 448.164695704 575.609746449 449.978588098 544.744055635 450 514 c 0
 450.02170901 482.829358212 448.215284099 451.537251568 442.124587648 420.967449516 c 0
 436.033891197 390.397647464 425.113375412 360.395784951 406.783974652 335.183834441 c 0
 388.454573902 309.971883933 362.561798651 290.320109097 333.246907968 279.725461176 c 0
 303.932017286 269.130813256 272.17064934 268.000000007 241 268 c 2
 127 268 l 1
 127 368 l 1
 240 368 l 2
  Spiro
    240 368 ]
    350 514 o
    240 656 [
    64 656 v
    64 756 v
    243 756 ]
    450 514 o
    241 268 [
    127 268 v
    127 368 v
    0 0 z
  EndSpiro
EndSplineSet
EndChar
StartChar: Q
Encoding: 81 81 52
Width: 512
VWidth: 0
InSpiro: 1
Flags: HMW
LayerCount: 2
Fore
SplineSet
290 198 m 1
 226 134 l 1
 300 60 l 2
 320.161769839 39.8382301613 341.146960737 19.9941116395 366.107216887 6.21080510541 c 0
 391.067473036 -7.57250142865 419.487778888 -15.2171942612 448 -15 c 1
 448 85 l 1
 429.475296908 83.9397487662 410.752352653 88.4828527217 394.488766595 97.4150711387 c 0
 378.225180536 106.347289556 364.806877409 119.573434975 352 133 c 2
 290 198 l 1
  Spiro
    290 198 v
    226 134 v
    300 60 ]
    448 -15 v
    448 85 v
    352 133 [
    0 0 z
  EndSpiro
256 -8 m 0
 225.690025935 -7.81045957524 195.434067618 -0.124833762269 168.79262486 14.3307527432 c 0
 142.151182103 28.7863392487 119.274843331 50.0005923422 102.496853085 75.2439973566 c 0
 85.7188628393 100.487402371 75.1425105078 129.561044299 69.7204262667 159.382705149 c 0
 64.2983420256 189.204366 64 219.689433304 64 250 c 2
 64 552 l 2
 64 579.978632429 64.4885868776 608.208322314 70.8734092156 635.448695225 c 0
 77.2582315537 662.689068135 89.4827742846 688.675650491 107.379597291 710.181640328 c 0
 125.276420299 731.687630164 148.553114042 748.55957241 174.26457561 759.592460365 c 0
 199.976037177 770.62534832 228.021367572 776.000000001 256 776 c 0
 283.978632429 776 312.023962823 770.625348319 337.735424391 759.592460363 c 0
 363.446885958 748.559572407 386.723579702 731.687630159 404.620402708 710.181640323 c 0
 422.517225715 688.675650487 434.741768446 662.689068132 441.126590784 635.448695222 c 0
 447.511413122 608.208322313 448 579.978632428 448 552 c 2
 448 224 l 2
 448 202.845649175 447.553039533 181.534246673 443.029030767 160.869302843 c 0
 438.505022001 140.204359012 430.093172041 120.356893409 418 103 c 1
 342 179 l 1
 344.423609818 182.621877171 346.103770472 186.727149664 347.007377451 190.990408185 c 0
 347.910984431 195.253666706 348 199.642032723 348 204 c 2
 348 544 l 2
 348 559.093061656 347.887798209 574.257130102 345.468178113 589.154980577 c 0
 343.048558017 604.052831051 338.298802908 618.670411982 330.508147158 631.597368049 c 0
 322.717491408 644.524324116 311.900477162 655.672559859 298.97811328 663.470830299 c 0
 286.055749398 671.269100739 271.089587684 675.676188784 256 676 c 0
 241.396981731 676.313369802 226.724707899 672.795985879 213.868332101 665.863457874 c 0
 201.011956303 658.930929869 190.049590739 648.610198256 182.081148431 636.368863754 c 0
 174.112706124 624.127529252 169.169798458 610.065959119 166.647681557 595.678976477 c 0
 164.125564656 581.291993835 164 566.606380222 164 552 c 2
 164 250 l 2
 164 222.827785505 164.9783295 195.142530337 174.186126995 169.577990329 c 0
 183.39392449 144.01345032 200.492252956 121.222698957 223 106 c 1
 308 -1 l 1
 291.106391311 -5.74345645814 273.546576702 -8.10972578182 256 -8 c 0
  Spiro
    256 -8 o
    64 250 [
    64 552 ]
    256 776 o
    448 552 [
    448 224 ]
    418 103 v
    342 179 v
    348 204 [
    348 544 ]
    256 676 o
    164 552 [
    164 250 ]
    223 106 v
    308 -1 v
    0 0 z
  EndSpiro
EndSplineSet
EndChar
StartChar: R
Encoding: 82 82 45
Width: 512
VWidth: 0
InSpiro: 1
Flags: MW
LayerCount: 2
Fore
SplineSet
127 432 m 1
 127 332 l 1
 241 332 l 2
 269.639466551 332 298.683280691 332.794039541 326.082954652 341.129320649 c 0
 353.482628613 349.464601757 378.648852144 365.131119055 397.918052708 386.318779471 c 0
 417.187253269 407.50643989 430.530749189 433.672023422 438.661030337 461.133224647 c 0
 446.791311486 488.594425872 450.094061615 517.360687915 450 546 c 0
 449.907372089 574.202787691 446.509655336 602.512545325 438.341197914 629.506657958 c 0
 430.172740493 656.500770591 416.862459204 682.179408413 397.761730904 702.929540749 c 0
 378.661002609 723.679673083 353.808909221 738.974124018 326.802974363 747.10341032 c 0
 299.797039506 755.232696623 271.202939799 755.999999998 243 756 c 2
 64 756 l 1
 64 656 l 1
 240 656 l 2
 254.845320118 656 269.892335522 655.601851616 284.120824519 651.367039901 c 0
 298.349313517 647.132228186 311.469076639 639.162354549 321.611607945 628.322032224 c 0
 331.75413925 617.481709898 338.896845465 604.042635899 343.354625059 589.882419429 c 0
 347.812404652 575.722202958 349.776877541 560.843643278 350 546 c 0
 350.228453191 530.801719854 348.640745937 515.513879411 344.465748979 500.898500159 c 0
 340.290752022 486.283120908 333.321197522 472.333047201 323.165399597 461.023773186 c 0
 313.009601673 449.714499172 299.681738315 441.338701339 285.149787231 436.881986418 c 0
 270.617836146 432.425271498 255.199997046 432.000000001 240 432 c 2
 127 432 l 1
  Spiro
    127 432 v
    127 332 v
    241 332 ]
    450 546 o
    243 756 [
    64 756 v
    64 656 v
    240 656 ]
    350 546 o
    240 432 [
    0 0 z
  EndSpiro
512 0 m 1
 512.326910931 21.182322963 509.935443348 42.3980807734 505 63 c 0
 498.045829839 92.028648863 485.461389515 119.357666585 472 146 c 2
 328 431 l 1
 251 354 l 1
 374 110 l 2
 385.169068443 87.8434739822 397.12737993 65.8417035559 404 42 c 0
 407.9304656 28.3648805366 410.04115405 14.1902554226 410 0 c 1
 512 0 l 1
  Spiro
    512 0 v
    505 63 o
    472 146 [
    328 431 v
    251 354 v
    374 110 ]
    404 42 o
    410 0 v
    0 0 z
  EndSpiro
64 756 m 1
 64 0 l 1
 164 0 l 1
 164 756 l 1
 64 756 l 1
  Spiro
    64 756 v
    64 0 v
    164 0 v
    164 756 v
    0 0 z
  EndSpiro
EndSplineSet
EndChar
StartChar: S
Encoding: 83 83 54
Width: 1024
VWidth: 0
InSpiro: 1
Flags: HM
LayerCount: 2
Fore
SplineSet
75 125 m 1
 55 27 l 1
 86 21 l 2
 142.704069365 10.0250188325 199.247187472 -5.64369191199 257 -5 c 0
 291.291134706 -4.61780344374 325.827124527 2.82613089463 355.86745571 19.3671857587 c 0
 385.907786893 35.9082406228 410.986542503 61.3527678514 426.953701947 91.7020316462 c 0
 442.920861392 122.051295441 449.797507322 156.956773518 447.568189346 191.177500205 c 0
 445.338871371 225.398226892 434.215062155 258.944200161 416 288 c 0
 404.910119736 305.690048953 390.763523906 321.236476094 376 336 c 2
 236 476 l 2
 221.520958814 490.479041186 206.309238835 504.223261086 192.140476967 519.00607051 c 0
 177.971715099 533.788879933 165.204991885 550.959957321 161 571 c 0
 158.801369154 581.478178601 159.016784369 592.476382641 161.821497826 602.808845408 c 0
 164.626211282 613.141308174 169.980999572 622.737331745 177.094962054 630.738440555 c 0
 191.32288702 646.740658175 211.9865498 655.884209886 233 660 c 0
 258.274431307 664.950365291 284.384248121 663.63228446 309.948567218 660.50681113 c 0
 335.512886315 657.3813378 360.774407688 652.1935043 386 647 c 2
 420 640 l 1
 440 738 l 1
 409 744 l 2
 354.202172448 754.606031139 298.597818105 765.916545828 243 761 c 0
 210.891730673 758.160647971 179.045913549 749.612977729 150.987389799 733.747224545 c 0
 122.928866049 717.881471361 98.9181916525 694.624266232 83.219742805 666.471795951 c 0
 67.5212939574 638.31932567 60.3646681723 605.528035972 62.6291655044 573.37411038 c 0
 64.8936628365 541.220184788 76.4408957504 510.031106841 94 483 c 0
 106.907484458 463.129761377 123.245455274 445.754544726 140 429 c 2
 274 295 l 2
 288.487066329 280.512933671 303.64329335 266.702010353 317.95462621 252.04131687 c 0
 332.26595907 237.380623387 345.437420341 220.718212119 351 201 c 0
 353.94652794 190.555158489 354.675944201 179.463031499 352.856899685 168.764068085 c 0
 351.037855169 158.065104671 346.691489585 147.82549968 340.404067887 138.979875367 c 0
 327.82922449 121.288626741 307.924760898 109.767265014 287 104 c 0
 258.05419681 96.0219820495 227.317921919 97.6606406555 197.555928608 101.627005095 c 0
 167.793935297 105.593369535 138.408322789 111.945345308 109 118 c 2
 75 125 l 1
  Spiro
    75 125 v
    55 27 v
    86 21 ]
    257 -5 o
    416 288 o
    376 336 [
    236 476 ]
    161 571 o
    233 660 o
    386 647 [
    420 640 v
    440 738 v
    409 744 ]
    243 761 o
    94 483 o
    140 429 [
    274 295 ]
    351 201 o
    287 104 o
    109 118 [
    0 0 z
  EndSpiro
EndSplineSet
EndChar
StartChar: V
Encoding: 86 86 37
Width: 512
VWidth: 0
InSpiro: 1
Flags: HW
LayerCount: 2
Fore
SplineSet
258 -8 m 1024,0,-1
  Spiro
    258 -8 {
    0 0 z
  EndSpiro
164 384 m 2
 164 367.538848851 164.715831128 350.922791444 169.078216503 335.050202147 c 0
 173.440601879 319.177612849 181.098459538 304.440746362 189 290 c 2
 247 184 l 2
 247.438522765 183.198561843 247.897690522 182.400153207 248.502224032 181.715211918 c 0
 249.106757542 181.030270628 249.845855743 180.465311706 250.664592716 180.060003053 c 0
 252.302066662 179.249385748 254.173862112 179.060346946 256 179 c 0
 258.002032399 178.933840406 260.068875683 178.994546092 261.91055319 179.782413325 c 0
 262.831391944 180.176346941 263.66954931 180.763591739 264.346947142 181.501331451 c 0
 265.024344973 182.239071162 265.525655665 183.117885973 266 184 c 2
 323 290 l 2
 330.79275406 304.491788252 338.403772229 319.235412746 342.814173385 335.087456912 c 0
 347.224574541 350.939501077 348 367.545853332 348 384 c 2
 348 756 l 1
 448 756 l 1
 448 352 l 2
 448 337.574073256 446.578907704 323.034518196 441.80163913 309.422572435 c 0
 437.024370555 295.810626675 430.239108634 283.006955288 424 270 c 2
 306 24 l 2
 303.707535085 19.2207934814 301.31847128 14.4496671286 298.127594866 10.2171125754 c 0
 294.936718452 5.98455802226 290.984637405 2.31957091364 286.475508182 -0.466818145292 c 0
 277.457249737 -6.03959626289 266.601002939 -8.05981667197 256 -8 c 0
 245.432597225 -7.94037291881 234.648429014 -5.82107288604 225.663162395 -0.258830480478 c 0
 221.170529085 2.52229072221 217.219818977 6.15727515855 214.004181533 10.3498954645 c 0
 210.788544089 14.5425157704 208.347574246 19.2663666851 206 24 c 2
 84 270 l 2
 77.6686101635 282.766572949 71.5396008328 295.750206581 68.0549690681 309.567920705 c 0
 64.5703373035 323.385634828 64 337.749670807 64 352 c 2
 64 756 l 1
 164 756 l 1
 164 384 l 2
  Spiro
    164 384 ]
    189 290 [
    247 184 ]
    256 179 o
    266 184 [
    323 290 ]
    348 384 [
    348 756 v
    448 756 v
    448 352 ]
    424 270 [
    306 24 ]
    256 -8 o
    206 24 [
    84 270 ]
    64 352 [
    64 756 v
    164 756 v
    0 0 z
  EndSpiro
EndSplineSet
EndChar
StartChar: W
Encoding: 87 87 53
Width: 704
VWidth: 0
InSpiro: 1
Flags: W
HStem: 736 20G<64 164 540 640>
VStem: 64 100<263.769 756> 302 100<305.764 427> 540 100<264.337 756>
CounterMasks: 1 70
LayerCount: 2
Fore
SplineSet
475 -8 m 1024,0,-1
  Spiro
    475 -8 {
    0 0 z
  EndSpiro
302 430 m 1024,1,-1
  Spiro
    302 430 {
    0 0 z
  EndSpiro
402 352 m 2,2,-1
 402 335.572313049 403.018254205 319.00519085 407.624637911 303.236547036 c 0,5,-1
 412.231021616 287.467903222 419.653315053 272.693369895 427 258 c 2,8,-1
 464 184 l 2,9,-1
 464.410685029 183.178629942 464.845684548 182.359566037 465.444033178 181.66293853 c 0,12,-1
 466.042381809 180.966311023 466.790674033 180.401097992 467.620146354 180.007033741 c 0,15,-1
 469.279090997 179.218905238 471.165382463 179.086153098 473 179 c 0,18,-1
 474.017801861 178.952204325 475.038269365 178.923488883 476.055343469 178.98485112 c 0,21,-1
 477.072417572 179.046213356 478.092298492 179.210867292 479.037993144 179.590164907 c 0,24,-1
 479.983687796 179.969462522 480.840145728 180.57383478 481.498262007 181.351708818 c 0,27,-1
 482.156378286 182.129582856 482.59557791 183.064773916 483 184 c 2,30,-1
 515 258 l 2,31,-1
 521.504314028 273.041226191 528.583692192 287.888113147 533.556517602 303.502708682 c 0,34,-1
 538.529343011 319.117304218 540 335.612669946 540 352 c 2,37,-1
 540 756 l 1,38,-1
 640 756 l 1,39,-1
 640 320 l 2,40,-1
 640 305.594157115 638.312036114 291.10025534 633.321154417 277.586580448 c 0,43,-1
 628.33027272 264.072905555 621.741728084 251.212148494 616 238 c 2,46,-1
 523 24 l 2,47,-1
 520.872450067 19.1043474657 518.63283312 14.2122242398 515.496863703 9.89255084113 c 0,50,-1
 512.360894286 5.57287744247 508.377568321 1.86543002953 503.809243633 -0.895782022299 c 0,53,-1
 494.672594256 -6.41820612552 483.6750176 -8.13974636517 473 -8 c 0,56,-1
 462.407044814 -7.86132791205 451.577044042 -5.90415065289 442.521344332 -0.4064936711 c 0,59,-1
 437.993494478 2.34233481965 434.015305232 5.97786029665 430.82052522 10.2028884687 c 0,62,-1
 427.625745208 14.4279166408 425.260806238 19.209776881 423 24 c 2,65,-1
 322 238 l 2,66,-1
 315.923909201 250.874093376 309.901888814 263.872541286 306.304901036 277.646532667 c 0,69,-1
 302.707913259 291.420524048 302 305.764089083 302 320 c 2,72,-1
 302 427 l 1,73,-1
 402 427 l 1,74,-1
 402 352 l 2,2,-1
  Spiro
    402 352 ]
    427 258 [
    464 184 ]
    473 179 o
    483 184 [
    515 258 ]
    540 352 [
    540 756 v
    640 756 v
    640 320 ]
    616 238 [
    523 24 ]
    473 -8 o
    423 24 [
    322 238 ]
    302 320 [
    302 427 v
    402 427 v
    0 0 z
  EndSpiro
233 -8 m 1024,75,-1
  Spiro
    233 -8 {
    0 0 z
  EndSpiro
164 352 m 2,76,-1
 164 335.605385406 165.378390955 319.095524175 170.276352002 303.449650429 c 0,79,-1
 175.174313048 287.803776683 182.3227477 272.97323243 189 258 c 2,82,-1
 222 184 l 2,83,-1
 222.37805516 183.152239945 222.782782309 182.305221408 223.368282564 181.58493517 c 0,86,-1
 223.95378282 180.864648932 224.705589755 180.282487977 225.545375949 179.887036383 c 0,89,-1
 227.224948336 179.096133196 229.1436788 179.02372461 231 179 c 0,92,-1
 232.007095472 178.987128872 233.015894374 178.993223962 234.019284606 179.080487913 c 0,95,-1
 235.022674838 179.167751864 236.025799115 179.348467388 236.959368445 179.726429371 c 0,98,-1
 237.892937775 180.104391353 238.743925212 180.689320416 239.415353475 181.440047425 c 0,101,-1
 240.086781738 182.190774434 240.559394276 183.094310456 241 184 c 2,104,-1
 277 258 l 2,105,-1
 284.182687576 272.764413351 291.53688904 287.55160114 296.214975592 303.289911362 c 0,108,-1
 300.893062144 319.028221584 302 335.581141866 302 352 c 2,111,-1
 302 427 l 1,112,-1
 402 427 l 1,113,-1
 402 320 l 2,114,-1
 402 305.586316578 400.4237199 291.073393273 395.522308292 277.518673281 c 0,117,-1
 390.620896685 263.96395329 383.950555447 251.128029542 378 238 c 2,120,-1
 281 24 l 2,121,-1
 278.804918263 19.1572423534 276.50179719 14.3205302188 273.33614163 10.048609066 c 0,124,-1
 270.170486071 5.77668791329 266.190007382 2.10565976888 261.642374556 -0.649285081873 c 0,127,-1
 252.547108903 -6.15917478299 241.634036948 -8.00000000034 231 -8 c 0,130,-1
 220.365963051 -8 209.452891097 -6.15917478226 200.357625444 -0.649285080751 c 0,133,-1
 195.809992617 2.10565976984 191.829513929 5.77668791407 188.66385837 10.0486090666 c 0,136,-1
 185.49820281 14.3205302192 183.195081737 19.1572423536 181 24 c 2,139,-1
 84 238 l 2,140,-1
 78.1271886182 250.956511708 72.1890780428 263.968158539 68.5029762079 277.707654979 c 0,143,-1
 64.8168743729 291.44715142 64 305.774631493 64 320 c 2,146,-1
 64 756 l 1,147,-1
 164 756 l 1,148,-1
 164 352 l 2,76,-1
  Spiro
    164 352 ]
    189 258 [
    222 184 ]
    231 179 o
    241 184 [
    277 258 ]
    302 352 [
    302 427 v
    402 427 v
    402 320 ]
    378 238 [
    281 24 ]
    231 -8 o
    181 24 [
    84 238 ]
    64 320 [
    64 756 v
    164 756 v
    0 0 z
  EndSpiro
EndSplineSet
EndChar
StartChar: Z
Encoding: 90 90 50
Width: 512
VWidth: 0
InSpiro: 1
Flags: W
VStem: 158 6<0 91.5319>
LayerCount: 2
Fore
SplineSet
64 656 m 1
 368 656 l 1
 368 756 l 1
 64 756 l 1
 64 656 l 1
  Spiro
    64 656 v
    368 656 v
    368 756 v
    64 756 v
    0 0 z
  EndSpiro
448 0 m 1
 448 100 l 1
 158 100 l 1
 158 0 l 1
 448 0 l 1
  Spiro
    448 100 v
    158 100 v
    158 0 v
    448 0 v
    0 0 z
  EndSpiro
64 0 m 1
 164 0 l 1
 164 64 l 2
 164.417936397 91.5319479865 169.087637648 118.958519597 177.368466707 145.218959442 c 0
 185.649295765 171.479399287 197.661124488 196.384253376 210 221 c 2
 409 618 l 2
 421.300596298 642.539380555 435.779211282 666.145350075 445 692 c 0
 452.283329408 712.422106817 455.15319164 734.548503162 452 756 c 1
 348 756 l 1
 345.981357291 733.480807968 337.21276209 712.171475371 327 692 c 2
 126 295 l 2
 107.759170492 258.972092962 90.059674599 222.427326625 78.6799249356 183.681497891 c 0
 67.3001752723 144.935669157 62.0606725102 104.335802404 64 64 c 2
 64 0 l 1
  Spiro
    64 0 v
    164 0 v
    164 64 v
    210 221 [
    409 618 ]
    445 692 o
    452 756 v
    348 756 v
    327 692 [
    126 295 ]
    64 64 v
    0 0 z
  EndSpiro
EndSplineSet
EndChar
StartChar: backslash
Encoding: 92 92 47
Width: 512
VWidth: 0
InSpiro: 1
Flags: W
VStem: 64 100<633.006 756> 348 100<0 119.574>
LayerCount: 2
Fore
SplineSet
348 0 m 1
 448 0 l 1
 450.092376493 36.3863148532 445.707643201 73.0718569736 435.765259527 108.135954778 c 0
 425.822875853 143.200052583 410.157912667 176.330996247 394 209 c 2
 211 579 l 2
 197.303369434 606.692641035 184.012407037 634.75904847 175.407668716 664.431233 c 0
 166.802930394 694.10341753 162.745172989 725.130833093 164 756 c 1
 64 756 l 1
 62.0926140572 715.722120765 67.2421038552 675.188337437 78.4349703709 636.449914445 c 0
 89.6278368866 597.711491453 107.045530901 561.105161904 125 525 c 2
 308 157 l 2
 320.188746034 132.489297593 331.999152148 107.617569144 339.394005317 81.2612376672 c 0
 346.788858487 54.9049061899 349.891697992 27.3086349174 348 0 c 1
  Spiro
    348 0 v
    448 0 v
    394 209 [
    211 579 ]
    164 756 v
    64 756 v
    125 525 [
    308 157 ]
    0 0 z
  EndSpiro
EndSplineSet
EndChar
StartChar: a
Encoding: 97 97 18
Width: 576
VWidth: 0
InSpiro: 1
Flags: MW
LayerCount: 2
Fore
SplineSet
346 321 m 1
 446 321 l 1
 446 282 l 2
 446 255.994140625 444.221679688 229.9453125 446 204 c 0
 447.80078125 177.7265625 455.176757812 151.227539062 471.30078125 130.405273438 c 0
 487.423828125 109.583007812 511.868164062 95.2685546875 538 92 c 1
 538 -8 l 1
 510.28515625 -9.513671875 482.225585938 -4.0498046875 457.07421875 7.6884765625 c 0
 431.922851562 19.42578125 409.779296875 37.3984375 392.694335938 59.2734375 c 0
 375.610351562 81.1484375 363.631835938 106.796875 356.39453125 133.592773438 c 0
 349.157226562 160.388671875 346.625 188.250976562 346 216 c 0
 345.4140625 241.994140625 346 267.999023438 346 294 c 2
 346 321 l 1
  Spiro
    346 321 v
    446 321 v
    446 282 ]
    446 204 o
    538 92 v
    538 -8 v
    346 216 o
    346 294 [
    0 0 z
  EndSpiro
126 450 m 1
 105 557 l 1
 151 567 l 2
 201.675798502 578.016477935 253.897186777 588.826200806 305 580 c 0
 326.364307988 576.310072568 347.222367381 569.169429752 365.840153691 558.059647884 c 0
 384.457940002 546.949866017 400.692482709 531.848648082 413 514 c 0
 428.343008916 491.749211301 437.335386254 465.552334344 441.668011036 438.873993263 c 0
 446.000635818 412.195652182 446 385.027865627 446 358 c 2
 446 316 l 1
 346 316 l 1
 346 352 l 2
 346 370.069098995 346.071335909 388.281752996 342.557145648 406.005827169 c 0
 339.042955387 423.729901343 331.500183865 440.952481392 319 454 c 0
 308.514307235 464.944820728 294.818191089 472.658487561 280.157892694 476.507449046 c 0
 265.4975943 480.356410531 250.04918341 480.481297327 235.015728305 478.548920259 c 0
 204.948818095 474.684166124 176.147903673 464.327972478 147 456 c 2
 126 450 l 1
  Spiro
    126 450 v
    105 557 v
    151 567 ]
    305 580 o
    413 514 o
    446 358 [
    446 316 v
    346 316 v
    346 352 ]
    319 454 o
    147 456 [
    0 0 z
  EndSpiro
65 129 m 0
 54.7474899456 169.689311149 55.8906788189 213.482142518 70 253 c 0
 83.1154655112 289.734233364 108.417608042 322.195161408 141.594733394 342.706077765 c 0
 174.771858747 363.216994122 214.282341444 370.271125673 253 375 c 2
 384 391 l 1
 384 292 l 1
 258 276 l 2
 245.263336676 274.382645927 232.444146747 272.378821944 220.538425157 267.573385415 c 0
 208.632703567 262.767948886 197.779601032 255.367872359 189 246 c 0
 169.810806319 225.525047161 160.754934721 195.849196583 165.619828517 168.212596643 c 0
 168.052275415 154.394296673 173.867170496 141.179369885 182.44908107 130.079233721 c 0
 191.030991645 118.979097557 202.342784186 110.054510699 215 104 c 0
 228.398651234 97.5908276796 243.204322775 94.3934837645 258.038683274 93.6565351126 c 0
 272.873043772 92.9195864608 287.742770091 94.5556268872 302.354700083 97.2188667615 c 0
 331.578560067 102.54534651 360.144292414 110.94638259 389 118 c 2
 434 129 l 1
 451 32 l 1
 425 25 l 2
 373.981192085 11.2641670999 323.039316533 -4.56976824394 270.379561436 -8.87581743125 c 0
 244.049683887 -11.0288420249 217.275341193 -9.8418760147 191.705887023 -3.20101913678 c 0
 166.136432853 3.43983774114 141.948663006 15.680969689 122 33 c 0
 93.456230211 57.7811301451 74.2358491463 92.3455283003 65 129 c 0
  Spiro
    65 129 o
    70 253 o
    253 375 [
    384 391 v
    384 292 v
    258 276 ]
    189 246 o
    215 104 o
    389 118 [
    434 129 v
    451 32 v
    425 25 ]
    122 33 o
    0 0 z
  EndSpiro
EndSplineSet
EndChar
StartChar: b
Encoding: 98 98 13
Width: 512
VWidth: 0
InSpiro: 1
Flags: MW
LayerCount: 2
Fore
SplineSet
66 768 m 1
 66 0 l 1
 166 0 l 1
 166 768 l 1
 66 768 l 1
  Spiro
    66 768 v
    66 0 v
    166 0 v
    166 768 v
    0 0 z
  EndSpiro
449 330 m 2
 449 361.57421875 448.467773438 393.434570312 441.245117188 424.171875 c 0
 434.0234375 454.908203125 420.146484375 484.2265625 399.756835938 508.333984375 c 0
 379.366210938 532.44140625 352.799804688 551.126953125 323.5625 563.046875 c 0
 294.325195312 574.966796875 262.572265625 580.313476562 231 580 c 0
 198.60546875 579.677734375 166.30078125 573.461914062 136 562 c 1
 156 467 l 1
 180.00390625 475.624023438 205.49609375 480.342773438 231 480 c 0
 247.587890625 479.776367188 264.235351562 477.311523438 279.821289062 471.631835938 c 0
 295.407226562 465.951171875 309.862304688 456.9140625 321.1640625 444.771484375 c 0
 332.466796875 432.627929688 340.3828125 417.482421875 344.525390625 401.418945312 c 0
 348.668945312 385.35546875 349 368.588867188 349 352 c 2
 349 220 l 2
 349 203.1796875 348.63671875 186.15625 344.176757812 169.938476562 c 0
 339.715820312 153.720703125 331.1953125 138.564453125 319.202148438 126.770507812 c 0
 307.208984375 114.9765625 292.024414062 106.655273438 275.908203125 101.838867188 c 0
 259.791992188 97.0224609375 242.814453125 95.5439453125 226 96 c 0
 183.771484375 97.1455078125 142.326171875 108.573242188 103 124 c 1
 69 28 l 1
 118.551757812 7.1044921875 172.225585938 -4.6142578125 226 -4 c 0
 257.553710938 -3.6396484375 289.2265625 1.1904296875 318.786132812 12.236328125 c 0
 348.345703125 23.2822265625 375.646484375 40.7958984375 396.901367188 64.119140625 c 0
 418.15625 87.4423828125 432.943359375 116.372070312 440.669921875 146.967773438 c 0
 448.395507812 177.5625 449 209.444335938 449 241 c 2
 449 330 l 2
  Spiro
    449 330 ]
    231 580 o
    136 562 v
    156 467 v
    231 480 o
    349 352 [
    349 220 ]
    226 96 o
    103 124 v
    69 28 v
    226 -4 o
    449 241 [
    0 0 z
  EndSpiro
EndSplineSet
EndChar
StartChar: c
Encoding: 99 99 9
Width: 512
VWidth: 0
InSpiro: 1
Flags: HWO
HStem: -4 100<203.988 394.033> 472.078 91.3794<197.003 359.465> 480 100<207.698 357.871>
VStem: 64 100<135.58 437.546>
LayerCount: 2
Fore
SplineSet
64 330 m 2xd0
 64 361.72877717 64.5459736096 393.751631629 71.8834999558 424.620321394 c 0
 79.221026302 455.489011159 93.3112342018 484.895444823 113.949577573 508.994699658 c 0
 134.587920945 533.093954492 161.423852246 551.675140614 190.883995935 563.457128329 c 0xd0
 220.344139624 575.239116044 252.274056239 580.424020209 284 580 c 0
 316.386473056 579.567151756 348.665959137 573.354160449 379 562 c 1
 359 467 l 1
 334.938451341 475.42637379 309.493958436 480.141358999 284 480 c 0xb0
 267.248408316 479.90711571 250.41506386 477.614968062 234.604819248 472.077765091 c 0
 218.794574635 466.54056212 204.074721374 457.607394451 192.528416946 445.470372348 c 0
 180.982112518 433.333350247 172.856095519 418.093408017 168.600244192 401.891180365 c 0
 164.344392865 385.688952712 164 368.751849194 164 352 c 2
 164 220 l 2
 164 203.179691991 164.362872519 186.156404432 168.823456892 169.938329683 c 0
 173.284041265 153.720254933 181.804765859 138.564361884 193.797673092 126.770594987 c 0
 205.790580326 114.97682809 220.975600899 106.655423071 237.091583729 101.839007501 c 0
 253.207566559 97.0225919316 270.185874187 95.5440014739 287 96 c 0
 329.228409566 97.1452330438 370.673646157 108.573139444 410 124 c 1
 444 28 l 1
 394.448090923 7.10411789693 340.774083685 -4.6144150791 287 -4 c 0
 255.446300259 -3.63947188694 223.773287377 1.19032330632 194.213923135 12.2361339823 c 0
 164.654558893 23.2819446583 137.353693956 40.7954356246 116.098578859 64.1189437252 c 0
 94.8434637628 87.4424518247 80.0562658999 116.372091025 72.3305605981 146.96750613 c 0
 64.6048552962 177.562921234 64.0000000004 209.444240655 64 241 c 2
 64 330 l 2xd0
  Spiro
    64 330 ]
    284 580 o
    379 562 v
    359 467 v
    284 480 o
    164 352 [
    164 220 ]
    287 96 o
    410 124 v
    444 28 v
    287 -4 o
    64 241 [
    0 0 z
  EndSpiro
EndSplineSet
EndChar
StartChar: d
Encoding: 100 100 10
Width: 576
VWidth: 0
InSpiro: 1
Flags: W
HStem: -4 100<203.988 383.902 487.233 538> 480 100<207.542 345.12> 748 20G<346 446>
VStem: 64 100<135.58 438.254> 346 100<138.253 467 562 768>
LayerCount: 2
Fore
SplineSet
346 768 m 1
 446 768 l 1
 446 304 l 2
 446 270.650390625 442.780273438 237.193359375 446 204 c 0
 448.513671875 178.0859375 456.708007812 152.26171875 472.765625 131.768554688 c 0
 488.823242188 111.274414062 512.39453125 96.712890625 538 92 c 1
 538 -8 l 1
 482.993164062 -8.7890625 428.692382812 18.130859375 394.60546875 61.3095703125 c 0
 377.561523438 82.8994140625 365.331054688 108.108398438 357.682617188 134.530273438 c 0
 350.034179688 160.951171875 346.939453125 188.509765625 346 216 c 0
 344.861328125 249.315429688 346 282.665039062 346 316 c 2
 346 768 l 1
  Spiro
    346 768 v
    446 768 v
    446 304 ]
    446 204 o
    538 92 v
    538 -8 v
    346 216 o
    346 316 [
    0 0 z
  EndSpiro
64 330 m 2
 64 361.574000584 64.5324105235 393.43464483 71.754595804 424.171553469 c 0
 78.9767810844 454.908462107 92.8533985174 484.226545364 113.2435039 508.333828815 c 0
 133.633609283 532.441112264 160.199746084 551.126698847 189.437165922 563.04688316 c 0
 218.67458576 574.967067473 250.427560033 580.313922561 282 580 c 0
 314.394267136 579.67790607 346.69959333 573.462008698 377 562 c 1
 357 467 l 1
 332.996125115 475.624336884 307.503869849 480.343247579 282 480 c 0
 265.412588107 479.77675588 248.764733383 477.311883649 233.178595597 471.63170934 c 0
 217.592457811 465.951535031 203.137892409 456.913988598 191.835524576 444.771149037 c 0
 180.533156743 432.628309476 172.616884931 417.481938494 168.474132711 401.418636365 c 0
 164.331380491 385.355334236 164 368.588914106 164 352 c 2
 164 220 l 2
 164 203.179691991 164.362872519 186.156404432 168.823456892 169.938329683 c 0
 173.284041265 153.720254933 181.804765859 138.564361884 193.797673092 126.770594987 c 0
 205.790580326 114.97682809 220.975600899 106.655423071 237.091583729 101.839007501 c 0
 253.207566559 97.0225919316 270.185874187 95.5440014739 287 96 c 0
 329.228409566 97.1452330438 370.673646157 108.573139444 410 124 c 1
 444 28 l 1
 394.448090923 7.10411789693 340.774083685 -4.6144150791 287 -4 c 0
 255.446300259 -3.63947188694 223.773287377 1.19032330632 194.213923135 12.2361339823 c 0
 164.654558893 23.2819446583 137.353693956 40.7954356246 116.098578859 64.1189437252 c 0
 94.8434637628 87.4424518247 80.0562658999 116.372091025 72.3305605981 146.96750613 c 0
 64.6048552962 177.562921234 64.0000000004 209.444240655 64 241 c 2
 64 330 l 2
  Spiro
    64 330 ]
    282 580 o
    377 562 v
    357 467 v
    282 480 o
    164 352 [
    164 220 ]
    287 96 o
    410 124 v
    444 28 v
    287 -4 o
    64 241 [
    0 0 z
  EndSpiro
EndSplineSet
EndChar
StartChar: f
Encoding: 102 102 6
Width: 384
VWidth: 0
InSpiro: 1
Flags: W
HStem: 0 21G<128 228> 402 100<28 364> 664 98<256.771 357.682>
VStem: 128 100<0 633.926>
LayerCount: 2
Fore
SplineSet
28 502 m 1
 364 502 l 1
 364 402 l 1
 28 402 l 1
 28 502 l 1
  Spiro
    28 502 v
    364 502 v
    364 402 v
    28 402 v
    0 0 z
  EndSpiro
356 664 m 1
 337.935718536 670.909772333 317.684963861 671.993530214 299 667 c 0
 274.4009676 660.425943318 253.050759746 642.967423388 241.278683365 620.389805402 c 0
 235.392645174 609.100996409 231.788224415 596.70370703 229.941050648 584.107255024 c 0
 228.09387688 571.510803018 228 558.731168606 228 546 c 2
 228 0 l 1
 128 0 l 1
 128 522 l 2
 128 549.398512798 128.268596333 576.938225409 132.923506029 603.938416506 c 0
 137.578415725 630.938607603 146.6248456 657.320713879 160.943956595 680.679685686 c 0
 189.582178584 727.3976293 239.793651553 759.975923593 294 768 c 0
 322.318930537 772.192004606 351.54275626 770.101511932 379 762 c 1
 356 664 l 1
  Spiro
    356 664 v
    299 667 o
    228 546 [
    228 0 v
    128 0 v
    128 522 ]
    294 768 o
    379 762 v
    0 0 z
  EndSpiro
EndSplineSet
EndChar
StartChar: g
Encoding: 103 103 14
Width: 512
VWidth: 0
InSpiro: 1
Flags: W
HStem: -192 100<108.652 312.507> -4 100<203.988 347.242> 480 100<207.542 346.593>
VStem: 64 100<135.58 438.254> 348 100<-57.232 45 124 467 562 577>
LayerCount: 2
Fore
SplineSet
64 330 m 2
 64 361.574000584 64.5324105235 393.43464483 71.754595804 424.171553469 c 0
 78.9767810844 454.908462107 92.8533985174 484.226545364 113.2435039 508.333828815 c 0
 133.633609283 532.441112264 160.199746084 551.126698847 189.437165922 563.04688316 c 0
 218.67458576 574.967067473 250.427560033 580.313922561 282 580 c 0
 314.394267136 579.67790607 346.69959333 573.462008698 377 562 c 1
 357 467 l 1
 332.996125115 475.624336884 307.503869849 480.343247579 282 480 c 0
 265.412588107 479.77675588 248.764733383 477.311883649 233.178595597 471.63170934 c 0
 217.592457811 465.951535031 203.137892409 456.913988598 191.835524576 444.771149037 c 0
 180.533156743 432.628309476 172.616884931 417.481938494 168.474132711 401.418636365 c 0
 164.331380491 385.355334236 164 368.588914106 164 352 c 2
 164 220 l 2
 164 203.179691991 164.362872519 186.156404432 168.823456892 169.938329683 c 0
 173.284041265 153.720254933 181.804765859 138.564361884 193.797673092 126.770594987 c 0
 205.790580326 114.97682809 220.975600899 106.655423071 237.091583729 101.839007501 c 0
 253.207566559 97.0225919316 270.185874187 95.5440014739 287 96 c 0
 329.228409566 97.1452330438 370.673646157 108.573139444 410 124 c 1
 444 28 l 1
 394.448090923 7.10411789693 340.774083685 -4.6144150791 287 -4 c 0
 255.446300259 -3.63947188694 223.773287377 1.19032330632 194.213923135 12.2361339823 c 0
 164.654558893 23.2819446583 137.353693956 40.7954356246 116.098578859 64.1189437252 c 0
 94.8434637628 87.4424518247 80.0562658999 116.372091025 72.3305605981 146.96750613 c 0
 64.6048552962 177.562921234 64.0000000004 209.444240655 64 241 c 2
 64 330 l 2
  Spiro
    64 330 ]
    282 580 o
    377 562 v
    357 467 v
    282 480 o
    164 352 [
    164 220 ]
    287 96 o
    410 124 v
    444 28 v
    287 -4 o
    64 241 [
    0 0 z
  EndSpiro
102 -68 m 1
 142.276987454 -79.3546780706 183.216549194 -89.6961616359 225 -92 c 0
 241.392163626 -92.9038242343 257.988018838 -92.229518192 273.934142253 -88.3255363032 c 0
 289.880265669 -84.4215544145 305.128103194 -77.0970867139 317.323635748 -66.1066857977 c 0
 329.519168301 -55.1162848827 338.343664778 -40.5574841279 342.975957748 -24.8075067193 c 0
 347.608250719 -9.05752931076 348 7.58293794453 348 24 c 2
 348 577 l 1
 448 577 l 1
 448 45 l 2
 448 13.9267811531 447.357425572 -17.4932957767 439.426263847 -47.5372902383 c 0
 431.495102123 -77.5812846998 416.351523527 -105.820584654 394.86228929 -128.2651328 c 0
 373.373055053 -150.709680943 346.0034605 -167.17013177 316.646854388 -177.355150527 c 0
 287.290248276 -187.540169284 256.072069214 -191.732709448 225 -192 c 0
 171.573428597 -192.459590179 118.282262479 -182.063882058 68 -164 c 1
 102 -68 l 1
  Spiro
    102 -68 v
    225 -92 o
    348 24 [
    348 577 v
    448 577 v
    448 45 ]
    225 -192 o
    68 -164 v
    0 0 z
  EndSpiro
EndSplineSet
EndChar
StartChar: h
Encoding: 104 104 19
Width: 512
VWidth: 0
InSpiro: 1
Flags: HW
HStem: -4 100<168.25 309.012> 480 100<166.407 305.457>
VStem: 349 100<135.58 241 330 438.255>
LayerCount: 2
Fore
SplineSet
164 0 m 5
 164 372 l 6
 164 385.719952129 164.207185074 399.548453947 167.130902704 412.953265085 c 4
 170.054620333 426.358076223 175.680915573 439.240228509 184.103903269 450.070296131 c 4
 192.526890965 460.900363753 203.632856911 469.595815323 216.085366738 475.355336607 c 4
 228.537876566 481.114857891 242.280047871 484 256 484 c 4
 269.719952129 484 283.462123434 481.114857891 295.914633261 475.355336608 c 4
 308.367143089 469.595815324 319.473109035 460.900363754 327.896096731 450.070296133 c 4
 336.319084427 439.240228511 341.945379667 426.358076224 344.869097297 412.953265086 c 4
 347.792814926 399.548453948 348 385.719952129 348 372 c 6
 348 0 l 5
 448 0 l 5
 448 352 l 6
 448 380.514921742 447.557663651 409.260613023 441.405668832 437.10399144 c 4
 435.253674013 464.947369857 423.425855055 491.671903943 405.79007263 514.079044328 c 4
 388.154290206 536.486184713 364.957737334 554.406630156 339.018930028 566.25057534 c 4
 313.080122723 578.094520524 284.514921742 584 256 584 c 4
 227.485078258 584.000000001 198.919877278 578.094520525 172.981069972 566.250575342 c 4
 147.042262666 554.406630158 123.845709794 536.486184715 106.20992737 514.079044331 c 4
 88.5741449453 491.671903946 76.7463259869 464.947369859 70.5943311677 437.103991442 c 4
 64.4423363484 409.260613024 64 380.514921742 64 352 c 6
 64 0 l 5
 164 0 l 5
  Spiro
    164 372 ]
    256 484 o
    348 372 [
    348 0 v
    448 0 v
    448 352 ]
    256 584 o
    64 352 [
    64 0 v
    164 0 v
    0 0 z
  EndSpiro
66 768 m 1
 66 0 l 1
 166 0 l 1
 166 768 l 1
 66 768 l 1
  Spiro
    66 768 v
    66 0 v
    166 0 v
    166 768 v
    0 0 z
  EndSpiro
EndSplineSet
EndChar
StartChar: j
Encoding: 106 106 20
Width: 448
VWidth: 0
InSpiro: 1
Flags: HW
HStem: 644 116<292.495 373.505>
VStem: 275 116<661.495 742.505> 284 100<-62.258 -20.0059>
LayerCount: 2
Fore
SplineSet
284 576 m 1xa0
 284 64 l 1
 384 64 l 1
 384 576 l 1
 284 576 l 1xa0
  Spiro
    284 64 v
    384 64 v
    384 576 v
    284 576 v
    0 0 z
  EndSpiro
275 702 m 0xc0
 275 717.184570312 281.250976562 732.275390625 291.98828125 743.01171875 c 0
 302.724609375 753.749023438 317.815429688 760 333 760 c 0
 348.184570312 760 363.275390625 753.749023438 374.01171875 743.01171875 c 0
 384.749023438 732.275390625 391 717.184570312 391 702 c 0
 391 686.815429688 384.749023438 671.724609375 374.01171875 660.98828125 c 0
 363.275390625 650.250976562 348.184570312 644 333 644 c 0
 317.815429688 644 302.724609375 650.250976562 291.98828125 660.98828125 c 0
 281.250976562 671.724609375 275 686.815429688 275 702 c 0xc0
  Spiro
    275 702 o
    333 760 o
    391 702 o
    333 644 o
    0 0 z
  EndSpiro
64 -64 m 1
 43 -171 l 1
 89 -181 l 2
 139.67578125 -192.016601562 191.897460938 -202.826171875 243 -194 c 0
 264.364257812 -190.310546875 285.22265625 -183.168945312 303.83984375 -172.059570312 c 0
 322.458007812 -160.950195312 338.692382812 -145.848632812 351 -128 c 0
 366.342773438 -105.749023438 375.334960938 -79.552734375 379.66796875 -52.8740234375 c 0
 384.000976562 -26.1953125 384 0.9716796875 384 28 c 2
 384 64 l 1
 284 64 l 1
 284 34 l 2xa0
 284 15.9306640625 284.071289062 -2.2822265625 280.557617188 -20.005859375 c 0
 277.04296875 -37.7294921875 269.5 -54.9521484375 257 -68 c 0
 246.514648438 -78.9443359375 232.818359375 -86.658203125 218.158203125 -90.5078125 c 0
 203.498046875 -94.3564453125 188.048828125 -94.4814453125 173.015625 -92.548828125 c 0
 142.94921875 -88.6845703125 114.147460938 -78.328125 85 -70 c 2
 64 -64 l 1
  Spiro
    64 -64 v
    43 -171 v
    89 -181 ]
    243 -194 o
    351 -128 o
    384 28 [
    384 64 v
    284 64 v
    284 34 ]
    257 -68 o
    85 -70 [
    0 0 z
  EndSpiro
EndSplineSet
EndChar
StartChar: k
Encoding: 107 107 26
Width: 576
VWidth: 0
InSpiro: 1
Flags: HW
HStem: 0 102<455.297 512> 476 100<399.113 448>
LayerCount: 2
Fore
SplineSet
512 102 m 1
 495.271140142 99.9558457679 477.927524844 105.018388324 464.495961875 115.198095338 c 0
 451.064398906 125.377802352 442.078939815 140.209325569 434 155 c 2
 304 393 l 1
 224 329 l 1
 326 133 l 2
 344.84292371 96.7920289492 365.853280607 60.4480557872 397.79386703 35.034046255 c 0
 429.734453454 9.62003672278 471.35400603 -3.73846436013 512 0 c 1
 512 102 l 1
  Spiro
    512 102 v
    434 155 [
    304 393 v
    224 329 v
    326 133 ]
    512 0 v
    0 0 z
  EndSpiro
448 476 m 1
 448 576 l 1
 422.870117188 578.092773438 397.2734375 572.559570312 374.880859375 560.96484375 c 0
 352.489257812 549.369140625 333.831054688 531.831054688 316 514 c 2
 144 342 l 1
 144 199 l 1
 389 444 l 2
 397.11328125 452.11328125 405.518554688 460.10546875 415.421875 465.900390625 c 0
 425.325195312 471.6953125 436.547851562 475.280273438 448 476 c 1
  Spiro
    448 476 v
    448 576 v
    316 514 [
    144 342 v
    144 199 v
    389 444 ]
    0 0 z
  EndSpiro
66 768 m 1
 66 0 l 1
 166 0 l 1
 166 768 l 1
 66 768 l 1
  Spiro
    66 768 v
    66 0 v
    166 0 v
    166 768 v
    0 0 z
  EndSpiro
EndSplineSet
EndChar
StartChar: r
Encoding: 114 114 8
Width: 512
VWidth: 0
InSpiro: 1
Flags: WO
HStem: 0 21G<64 164> 484 100<195.875 316.125> 556 20G<64 164>
VStem: 64 100<0 392 527.765 576> 348 100<392 452.087>
LayerCount: 2
Fore
SplineSet
64 576 m 1xb8
 164 576 l 1
 164 0 l 1
 64 0 l 1
 64 576 l 1xb8
  Spiro
    64 576 v
    164 576 v
    164 0 v
    64 0 v
    0 0 z
  EndSpiro
164 0 m 1
 64 0 l 1
 64 392 l 2
 64 442.265482457 84.6924345069 492.221438483 120.235498012 527.764501988 c 0
 155.778561517 563.307565493 205.734517543 584 256 584 c 0
 306.265482457 584 356.221438483 563.307565493 391.764501988 527.764501988 c 0
 427.307565493 492.221438483 448 442.265482457 448 392 c 1
 348 392 l 1
 348 416.085543678 338.084875132 440.022772606 321.053823869 457.053823869 c 0
 304.022772606 474.084875132 280.085543678 484 256 484 c 0xd8
 231.914456322 484 207.977227394 474.084875132 190.946176131 457.053823869 c 0
 173.915124868 440.022772606 164 416.085543678 164 392 c 2
 164 0 l 1
  Spiro
    164 0 v
    64 0 v
    64 392 v
    256 584 o
    448 392 v
    348 392 v
    256 484 o
    164 392 v
    0 0 z
  EndSpiro
EndSplineSet
EndChar
StartChar: t
Encoding: 116 116 16
Width: 384
VWidth: 0
InSpiro: 1
Flags: W
HStem: -8 100<274.695 320.506> 466 100<28 364>
VStem: 128.506 100<138.253 704>
LayerCount: 2
Fore
SplineSet
28 566 m 1
 364 566 l 1
 364 466 l 1
 28 466 l 1
 28 566 l 1
  Spiro
    28 566 v
    364 566 v
    364 466 v
    28 466 v
    0 0 z
  EndSpiro
128.505985415 704 m 1
 228.505985415 704 l 1
 228.505985415 304 l 2
 228.505985415 270.65085747 225.285775354 237.193305871 228.505985415 204 c 0
 231.019987832 178.08614668 239.21365631 152.261939298 255.271560011 131.768239516 c 0
 271.329463711 111.274539733 294.90052798 96.7125949927 320.505985415 92 c 1
 320.505985415 -8 l 1
 265.498907423 -8.78868315607 211.198316042 18.1305436451 177.111009482 61.3098926656 c 0
 160.067356203 82.8995671759 147.837493383 108.108429812 140.188791675 134.529965058 c 0
 132.540089966 160.951500304 129.445384076 188.509680018 128.505985415 216 c 0
 127.367518231 249.315809882 128.505985415 282.664743954 128.505985415 316 c 2
 128.505985415 704 l 1
  Spiro
    128.506 704 v
    228.506 704 v
    228.506 304 ]
    228.506 204 o
    320.506 92 v
    320.506 -8 v
    128.506 216 o
    128.506 316 [
    0 0 z
  EndSpiro
EndSplineSet
EndChar
StartChar: u
Encoding: 117 117 2
Width: 512
VWidth: 0
InSpiro: 1
Flags: W
HStem: -8 100<195.431 316.569> 0 21G<348 448> 557 20G<64 164 348 448>
VStem: 64 100<123.431 577> 348 100<138.896 577>
LayerCount: 2
Fore
SplineSet
448 0 m 5x78
 348 0 l 5
 348 577 l 5
 448 577 l 5
 448 0 l 5x78
  Spiro
    448 0 v
    348 0 v
    348 577 v
    448 577 v
    0 0 z
  EndSpiro
164 577 m 1
 164 204 l 2
 164 190.280047871 164.207185074 176.451546053 167.130902704 163.046734915 c 0
 170.054620333 149.641923777 175.680915573 136.759771491 184.103903269 125.929703869 c 0
 192.526890965 115.099636247 203.632856911 106.404184677 216.085366738 100.644663393 c 0
 228.537876566 94.8851421092 242.280047871 92 256 92 c 0
 269.719952129 91.9999999998 283.462123434 94.8851421087 295.914633261 100.644663392 c 0
 308.367143089 106.404184676 319.473109035 115.099636246 327.896096731 125.929703867 c 0
 336.319084427 136.759771489 341.945379667 149.641923776 344.869097297 163.046734914 c 0
 347.792814926 176.451546052 348 190.280047871 348 204 c 2
 348 577 l 1
 448 577 l 1
 448 224 l 2
 448 195.485078258 447.557663651 166.739386977 441.405668832 138.89600856 c 0
 435.253674013 111.052630143 423.425855055 84.3280960568 405.79007263 61.9209556723 c 0
 388.154290206 39.5138152873 364.957737334 21.5933698439 339.018930028 9.74942465998 c 0
 313.080122723 -2.09452052395 284.514921742 -8 256 -8 c 0xb8
 227.485078258 -8.00000000051 198.919877278 -2.09452052503 172.981069972 9.74942465832 c 0
 147.042262666 21.5933698417 123.845709794 39.5138152845 106.20992737 61.920955669 c 0
 88.5741449453 84.328096054 76.7463259869 111.052630141 70.5943311677 138.896008558 c 0
 64.4423363484 166.739386976 64 195.485078258 64 224 c 2
 64 577 l 1
 164 577 l 1
  Spiro
    164 204 ]
    256 92 o
    348 204 [
    348 577 v
    448 577 v
    448 224 ]
    256 -8 o
    64 224 [
    64 577 v
    164 577 v
    0 0 z
  EndSpiro
EndSplineSet
EndChar
StartChar: v
Encoding: 118 118 22
Width: 512
VWidth: 0
InSpiro: 1
Flags: HMW
LayerCount: 2
Fore
SplineSet
258 -8 m 1024,0,-1
  Spiro
    258 -8 {
    0 0 z
  EndSpiro
64 580 m 1024,1,-1
  Spiro
    64 580 {
    0 0 z
  EndSpiro
164 384 m 2,2,-1
 164 367.538848851 164.715831128 350.922791444 169.078216503 335.050202147 c 0,5,-1
 173.440601879 319.177612849 181.098459538 304.440746362 189 290 c 2,8,-1
 247 184 l 2,9,-1
 247.438522765 183.198561843 247.897690522 182.400153207 248.502224032 181.715211918 c 0,12,-1
 249.106757542 181.030270628 249.845855743 180.465311706 250.664592716 180.060003053 c 0,15,-1
 252.302066662 179.249385748 254.173862112 179.060346946 256 179 c 0,18,-1
 258.002032399 178.933840406 260.068875683 178.994546092 261.91055319 179.782413325 c 0,21,-1
 262.831391944 180.176346941 263.66954931 180.763591739 264.346947142 181.501331451 c 0,24,-1
 265.024344973 182.239071162 265.525655665 183.117885973 266 184 c 2,27,-1
 323 290 l 2,28,-1
 330.79275406 304.491788252 338.403772229 319.235412746 342.814173385 335.087456912 c 0,31,-1
 347.224574541 350.939501077 348 367.545853332 348 384 c 2,34,-1
 348 577 l 1,35,-1
 448 577 l 1,36,-1
 448 352 l 2,37,-1
 448 337.574073256 446.578907704 323.034518196 441.80163913 309.422572435 c 0,40,-1
 437.024370555 295.810626675 430.239108634 283.006955288 424 270 c 2,43,-1
 306 24 l 2,44,-1
 303.707535085 19.2207934814 301.31847128 14.4496671286 298.127594866 10.2171125754 c 0,47,-1
 294.936718452 5.98455802226 290.984637405 2.31957091364 286.475508182 -0.466818145292 c 0,50,-1
 277.457249737 -6.03959626289 266.601002939 -8.05981667197 256 -8 c 0,53,-1
 245.432597225 -7.94037291881 234.648429014 -5.82107288604 225.663162395 -0.258830480478 c 0,56,-1
 221.170529085 2.52229072221 217.219818977 6.15727515855 214.004181533 10.3498954645 c 0,59,-1
 210.788544089 14.5425157704 208.347574246 19.2663666851 206 24 c 2,62,-1
 84 270 l 2,63,-1
 77.6686101635 282.766572949 71.5396008328 295.750206581 68.0549690681 309.567920705 c 0,66,-1
 64.5703373035 323.385634828 64 337.749670807 64 352 c 2,69,-1
 64 577 l 1,70,-1
 164 577 l 1,71,-1
 164 384 l 2,2,-1
  Spiro
    164 384 ]
    189 290 [
    247 184 ]
    256 179 o
    266 184 [
    323 290 ]
    348 384 [
    348 577 v
    448 577 v
    448 352 ]
    424 270 [
    306 24 ]
    256 -8 o
    206 24 [
    84 270 ]
    64 352 [
    64 577 v
    164 577 v
    0 0 z
  EndSpiro
EndSplineSet
EndChar
StartChar: x
Encoding: 120 120 24
Width: 1024
VWidth: 0
InSpiro: 1
Flags: WO
HStem: 0 21G<70 170.635 341.365 442> 556 20G<70 170.635 341.365 442>
VStem: 70 100<0 87.7933 488.207 576> 342 100<0 87.7933 488.207 576>
LayerCount: 2
Fore
SplineSet
342 0 m 5
 340.73046875 10.060546875 339.061523438 20.0712890625 337 30 c 4
 319.310546875 115.213867188 270.370117188 190.252929688 218.342773438 260.018554688 c 4
 166.314453125 329.78515625 112.704101562 400.8515625 87 484 c 4
 77.767578125 513.864257812 72 544.805664062 70 576 c 5
 170 576 l 5
 171.26953125 565.939453125 172.938476562 555.928710938 175 546 c 4
 192.689453125 460.786132812 241.629882812 385.747070312 293.657226562 315.981445312 c 4
 345.685546875 246.21484375 399.295898438 175.1484375 425 92 c 4
 434.232421875 62.1357421875 440 31.1943359375 442 0 c 5
 342 0 l 5
  Spiro
    337 30 o
    87 484 o
    70 576 v
    170 576 v
    175 546 o
    425 92 o
    442 0 v
    342 0 v
    0 0 z
  EndSpiro
170 0 m 1
 70 0 l 1
 72 31.1943359375 77.767578125 62.1357421875 87 92 c 0
 112.704101562 175.1484375 166.314453125 246.21484375 218.342773438 315.981445312 c 0
 270.370117188 385.747070312 319.310546875 460.786132812 337 546 c 0
 339.061523438 555.928710938 340.73046875 565.939453125 342 576 c 1
 442 576 l 1
 440 544.805664062 434.232421875 513.864257812 425 484 c 0
 399.295898438 400.8515625 345.685546875 329.78515625 293.657226562 260.018554688 c 0
 241.629882812 190.252929688 192.689453125 115.213867188 175 30 c 0
 172.938476562 20.0712890625 171.26953125 10.060546875 170 0 c 1
  Spiro
    170 0 v
    70 0 v
    87 92 o
    337 546 o
    342 576 v
    442 576 v
    425 484 o
    175 30 o
    0 0 z
  EndSpiro
EndSplineSet
EndChar
StartChar: y
Encoding: 121 121 7
Width: 512
VWidth: 0
InSpiro: 1
Flags: W
HStem: -192 100<108.652 312.507> -8 100<195.431 316.569> 557 20G<64 164 348 448>
VStem: 64 100<123.431 577> 348 100<-57.232 45 138.896 577>
LayerCount: 2
Fore
SplineSet
102 -68 m 5
 142.276987454 -79.3546780706 183.216549194 -89.6961616359 225 -92 c 4
 241.392163626 -92.9038242343 257.988018838 -92.229518192 273.934142253 -88.3255363032 c 4
 289.880265669 -84.4215544145 305.128103194 -77.0970867139 317.323635748 -66.1066857977 c 4
 329.519168301 -55.1162848827 338.343664778 -40.5574841279 342.975957748 -24.8075067193 c 4
 347.608250719 -9.05752931076 348 7.58293794453 348 24 c 6
 348 577 l 5
 448 577 l 5
 448 45 l 6
 448 13.9267811531 447.357425572 -17.4932957767 439.426263847 -47.5372902383 c 4
 431.495102123 -77.5812846998 416.351523527 -105.820584654 394.86228929 -128.2651328 c 4
 373.373055053 -150.709680943 346.0034605 -167.17013177 316.646854388 -177.355150527 c 4
 287.290248276 -187.540169284 256.072069214 -191.732709448 225 -192 c 4
 171.573428597 -192.459590179 118.282262479 -182.063882058 68 -164 c 5
 102 -68 l 5
  Spiro
    102 -68 v
    225 -92 o
    348 24 [
    348 577 v
    448 577 v
    448 45 ]
    225 -192 o
    68 -164 v
    0 0 z
  EndSpiro
64 580 m 1024
  Spiro
    64 580 {
    0 0 z
  EndSpiro
164 577 m 1
 164 204 l 2
 164 190.280047871 164.207185074 176.451546053 167.130902704 163.046734915 c 0
 170.054620333 149.641923777 175.680915573 136.759771491 184.103903269 125.929703869 c 0
 192.526890965 115.099636247 203.632856911 106.404184677 216.085366738 100.644663393 c 0
 228.537876566 94.8851421092 242.280047871 92 256 92 c 0
 269.719952129 91.9999999998 283.462123434 94.8851421087 295.914633261 100.644663392 c 0
 308.367143089 106.404184676 319.473109035 115.099636246 327.896096731 125.929703867 c 0
 336.319084427 136.759771489 341.945379667 149.641923776 344.869097297 163.046734914 c 0
 347.792814926 176.451546052 348 190.280047871 348 204 c 2
 348 577 l 1
 448 577 l 1
 448 224 l 2
 448 195.485078258 447.557663651 166.739386977 441.405668832 138.89600856 c 0
 435.253674013 111.052630143 423.425855055 84.3280960568 405.79007263 61.9209556723 c 0
 388.154290206 39.5138152873 364.957737334 21.5933698439 339.018930028 9.74942465998 c 0
 313.080122723 -2.09452052395 284.514921742 -8 256 -8 c 0
 227.485078258 -8.00000000051 198.919877278 -2.09452052503 172.981069972 9.74942465832 c 0
 147.042262666 21.5933698417 123.845709794 39.5138152845 106.20992737 61.920955669 c 0
 88.5741449453 84.328096054 76.7463259869 111.052630141 70.5943311677 138.896008558 c 0
 64.4423363484 166.739386976 64 195.485078258 64 224 c 2
 64 577 l 1
 164 577 l 1
  Spiro
    164 204 ]
    256 92 o
    348 204 [
    348 577 v
    448 577 v
    448 224 ]
    256 -8 o
    64 224 [
    64 577 v
    164 577 v
    0 0 z
  EndSpiro
EndSplineSet
EndChar
